#N canvas 0 30 1321 708 10;
#X obj 332 308 line, f 9;
#X text 419 119 The voiced speech of a typical adult male will have
a fundamental frequency from 85 to 180 Hz \, and that of a typical
adult female from 165 to 255 Hz;
#X obj 663 214 loadbang;
#X msg 663 273 \; pd dsp 1;
#X obj 663 249 delay 100;
#X obj 357 182 delwrite~ \$0-delay 44100;
#X msg 730 273 \; pd dsp 0;
#X obj 977 224 tabwrite~ \$0-voicetable;
#X obj 1060 94 table \$0-voicetable 441000;
#X obj 977 176 delread~ \$0-delay 300;
#X obj 355 77 +~;
#X obj 321 16 adc~, f 5;
#X obj 321 44 *~;
#X obj 363 -3 loadbang;
#X obj 363 25 tgl 15 0 empty empty empty 17 7 0 10 -262144 -1 -1 1
1;
#X obj 384 51 readsf~;
#X msg 430 4 open /home/alex/Downloads/1-minute_monologue_audition_jenna_larson.wav
, f 81;
#X obj 430 25 tgl 15 0 empty empty empty 17 7 0 10 -262144 -1 -1 0
1;
#X obj 896 175 bng 15 250 50 0 empty empty empty 17 7 0 10 -262144
-1 -1;
#X obj 799 413 tabplay~ \$0-voicetable;
#X obj 799 364 bng 15 250 50 0 empty empty empty 17 7 0 10 -262144
-1 -1;
#X obj 840 690 s \$0-startrecording;
#X obj 896 124 r \$0-startrecording;
#X obj 167 211 sigmund~ -hop 4096 pitch env;
#X floatatom 164 307 5 0 0 0 - - -, f 5;
#X floatatom 332 255 5 0 0 0 - - -, f 5;
#X obj 164 359 line;
#X obj 167 388 hsl 128 15 1 200 0 0 empty empty empty -2 -8 0 10 -262144
-1 -1 8560 1;
#X obj 167 248 moses 0;
#X obj 164 330 pack f 100;
#X obj 332 279 pack f 100;
#X floatatom 165 430 5 0 0 0 - - -, f 5;
#X obj 601 720 f;
#X obj 619 599 r \$0-pitch;
#X obj 165 456 s \$0-pitch;
#X floatatom 636 756 10 0 0 0 - - -, f 10;
#X obj 619 624 - 50, f 8;
#X obj 332 354 s \$0-env;
#X obj 397 355 hsl 128 15 1 100 0 0 empty empty empty -2 -8 0 10 -262144
-1 -1 7964 1;
#X obj 701 477 r \$0-env;
#N canvas 0 50 1364 736 delay 0;
#X floatatom 237 166 0 0 0 0 - - -;
#X obj 237 214 line~;
#X obj 237 190 pack 0 100;
#X floatatom 162 136 0 0 0 0 - - -;
#X floatatom 382 297 0 0 0 0 - - -;
#X obj 382 369 line~;
#X obj 382 345 pack 0 100;
#X obj 382 321 * 0.01;
#X obj 33 353 +~;
#X obj 361 395 *~;
#X obj 162 232 *~;
#X obj 162 160 / 100;
#X obj 33 377 hip~ 5;
#X obj 162 208 +~ 1;
#X obj 162 184 osc~ 0;
#X obj 162 256 +~ 1.46;
#X text 215 136 <-- cycle frequency (hundredths);
#X text 290 167 <-- cycle depth (msec);
#X text 431 298 <-- feedback (hundredths);
#X obj 361 419 clip~ -1 1;
#X text 387 481 updated for Pd version 0.37-1;
#X obj 32 409 outlet~;
#X obj 42 102 inlet~;
#X obj 163 87 inlet;
#X obj 229 101 inlet;
#X obj 476 138 inlet;
#X obj 361 443 delwrite~ \$0-echo-del 1000;
#X obj 162 280 vd~ \$0-echo-del;
#X connect 0 0 2 0;
#X connect 1 0 10 1;
#X connect 2 0 1 0;
#X connect 3 0 11 0;
#X connect 4 0 7 0;
#X connect 5 0 9 1;
#X connect 6 0 5 0;
#X connect 7 0 6 0;
#X connect 8 0 12 0;
#X connect 9 0 19 0;
#X connect 10 0 15 0;
#X connect 11 0 14 0;
#X connect 12 0 9 0;
#X connect 12 0 21 0;
#X connect 13 0 10 0;
#X connect 14 0 13 0;
#X connect 15 0 27 0;
#X connect 19 0 26 0;
#X connect 22 0 8 0;
#X connect 23 0 3 0;
#X connect 24 0 0 0;
#X connect 25 0 4 0;
#X connect 27 0 8 1;
#X restore 1082 648 pd delay;
#X obj 1097 598 unpack f f f;
#X msg 1055 417 0 0 0;
#X msg 1165 564 10 100 50;
#X msg 1141 516 10 10 80;
#X msg 1143 545 0.1 100 95;
#X msg 1099 434 10 2000 95;
#X msg 1126 491 10 10 95;
#X obj 700 636 delshot 200;
#X obj 840 648 delshot 20000;
#X obj 737 667 delshot 5000;
#X floatatom 1096 355 5 0 0 0 - - -, f 5;
#X obj 619 648 * 1000;
#X obj 1083 279 r \$0-trig-delay;
#X obj 732 711 s \$0-trig-delay;
#X obj 548 756 s \$0-playback;
#X obj 820 365 r \$0-playback;
#X obj 928 458 s \$0-playback;
#X obj 942 436 s \$0-trig-delay;
#X obj 1098 304 bng 15 250 50 0 empty empty empty 17 7 0 10 -262144
-1 -1;
#X obj 1115 625 +;
#X obj 1183 597 r \$0-pitch;
#X obj 1082 383 sel 0 1 2 3 4 5;
#X obj 1083 326 random 6;
#X obj 701 505 > 75;
#X obj 763 586 tgl 30 0 empty empty empty 17 7 0 10 -262144 -1 -4034
0 1;
#X obj 1015 316 loadbang;
#X msg 1015 343 0;
#X obj 355 117 hip~ 80;
#X obj 356 144 lop~ 600;
#X obj 1082 686 *~ 1;
#X obj 1122 671 tgl 15 0 empty empty empty 17 7 0 10 -262144 -1 -1
0 1;
#X obj 1087 731 dac~;
#X obj 700 581 sel 1;
#X obj 702 538 change;
#X connect 0 0 37 0;
#X connect 0 0 38 0;
#X connect 2 0 4 0;
#X connect 4 0 3 0;
#X connect 9 0 7 0;
#X connect 10 0 23 0;
#X connect 10 0 68 0;
#X connect 11 0 12 0;
#X connect 12 0 10 0;
#X connect 13 0 14 0;
#X connect 14 0 12 1;
#X connect 15 0 10 1;
#X connect 16 0 15 0;
#X connect 17 0 15 0;
#X connect 18 0 7 0;
#X connect 19 0 40 0;
#X connect 19 1 57 0;
#X connect 19 1 58 0;
#X connect 20 0 19 0;
#X connect 22 0 18 0;
#X connect 23 0 28 0;
#X connect 23 1 25 0;
#X connect 24 0 29 0;
#X connect 25 0 30 0;
#X connect 26 0 27 0;
#X connect 27 0 31 0;
#X connect 28 1 24 0;
#X connect 29 0 26 0;
#X connect 30 0 0 0;
#X connect 31 0 34 0;
#X connect 32 0 35 0;
#X connect 32 0 55 0;
#X connect 33 0 36 0;
#X connect 36 0 52 0;
#X connect 39 0 64 0;
#X connect 40 0 70 0;
#X connect 41 0 40 1;
#X connect 41 1 60 0;
#X connect 41 2 40 3;
#X connect 42 0 41 0;
#X connect 43 0 41 0;
#X connect 44 0 41 0;
#X connect 45 0 41 0;
#X connect 46 0 41 0;
#X connect 47 0 41 0;
#X connect 48 0 32 0;
#X connect 49 0 21 0;
#X connect 50 0 54 0;
#X connect 52 0 32 1;
#X connect 53 0 59 0;
#X connect 53 0 63 0;
#X connect 56 0 19 0;
#X connect 60 0 40 2;
#X connect 61 0 60 1;
#X connect 62 0 42 0;
#X connect 62 1 46 0;
#X connect 62 2 47 0;
#X connect 62 3 44 0;
#X connect 62 4 45 0;
#X connect 62 5 43 0;
#X connect 63 0 51 0;
#X connect 63 0 62 0;
#X connect 64 0 74 0;
#X connect 66 0 67 0;
#X connect 67 0 62 0;
#X connect 68 0 69 0;
#X connect 69 0 5 0;
#X connect 70 0 72 0;
#X connect 70 0 72 1;
#X connect 71 0 70 1;
#X connect 73 0 48 0;
#X connect 73 0 49 0;
#X connect 73 0 50 0;
#X connect 74 0 73 0;
#X connect 74 0 65 0;
